<mxfile host="65bd71144e">
    <diagram id="Q6rbvhHQXRr2ytZv1ONJ" name="Page-1">
        <mxGraphModel dx="3990" dy="3297" grid="1" gridSize="10" guides="1" tooltips="1" connect="1" arrows="1" fold="1" page="1" pageScale="1" pageWidth="850" pageHeight="1100" math="0" shadow="0">
            <root>
                <mxCell id="0"/>
                <mxCell id="1" parent="0"/>
                <mxCell id="qgahOEUiVm1OIHHilqF--117" style="edgeStyle=none;html=1;exitX=0.5;exitY=1;exitDx=0;exitDy=0;entryX=0.5;entryY=0;entryDx=0;entryDy=0;" edge="1" parent="1" source="3" target="9">
                    <mxGeometry relative="1" as="geometry"/>
                </mxCell>
                <mxCell id="3" value="&lt;font style=&quot;font-size: 15px;&quot;&gt;เริ่มต้น&lt;/font&gt;" style="ellipse;whiteSpace=wrap;html=1;" vertex="1" parent="1">
                    <mxGeometry x="775" y="-1080" width="120" height="50" as="geometry"/>
                </mxCell>
                <mxCell id="qgahOEUiVm1OIHHilqF--64" style="edgeStyle=none;html=1;exitX=0.5;exitY=1;exitDx=0;exitDy=0;entryX=0.5;entryY=0;entryDx=0;entryDy=0;" edge="1" parent="1" source="9" target="qgahOEUiVm1OIHHilqF--63">
                    <mxGeometry relative="1" as="geometry"/>
                </mxCell>
                <mxCell id="9" value="แสดงรายการของตู้ตะพาบลอย" style="rounded=0;whiteSpace=wrap;html=1;" vertex="1" parent="1">
                    <mxGeometry x="775" y="-960" width="120" height="40" as="geometry"/>
                </mxCell>
                <mxCell id="qgahOEUiVm1OIHHilqF--83" style="edgeStyle=none;html=1;exitX=1;exitY=0.5;exitDx=0;exitDy=0;entryX=0.5;entryY=0;entryDx=0;entryDy=0;" edge="1" parent="1" source="11" target="25">
                    <mxGeometry relative="1" as="geometry">
                        <Array as="points">
                            <mxPoint x="1245" y="-740"/>
                        </Array>
                    </mxGeometry>
                </mxCell>
                <mxCell id="qgahOEUiVm1OIHHilqF--122" style="edgeStyle=none;html=1;exitX=0;exitY=0.5;exitDx=0;exitDy=0;entryX=0.5;entryY=0;entryDx=0;entryDy=0;" edge="1" parent="1" source="11" target="24">
                    <mxGeometry relative="1" as="geometry">
                        <Array as="points">
                            <mxPoint x="480" y="-740"/>
                        </Array>
                    </mxGeometry>
                </mxCell>
                <mxCell id="11" value="ลูกค้าเลือกสินค้าที่ประเภทน้ำ" style="rhombus;whiteSpace=wrap;html=1;" vertex="1" parent="1">
                    <mxGeometry x="750" y="-780" width="170" height="80" as="geometry"/>
                </mxCell>
                <mxCell id="22" value="&lt;font style=&quot;font-size: 17px;&quot;&gt;จริง&lt;/font&gt;" style="text;html=1;align=center;verticalAlign=middle;whiteSpace=wrap;rounded=0;" vertex="1" parent="1">
                    <mxGeometry x="590" y="-770" width="60" height="30" as="geometry"/>
                </mxCell>
                <mxCell id="23" value="&lt;font style=&quot;font-size: 17px;&quot;&gt;เท็จ&lt;/font&gt;" style="text;html=1;align=center;verticalAlign=middle;whiteSpace=wrap;rounded=0;" vertex="1" parent="1">
                    <mxGeometry x="1080" y="-770" width="60" height="30" as="geometry"/>
                </mxCell>
                <mxCell id="qgahOEUiVm1OIHHilqF--68" style="edgeStyle=none;html=1;exitX=1;exitY=0.5;exitDx=0;exitDy=0;entryX=0.5;entryY=0;entryDx=0;entryDy=0;" edge="1" parent="1" source="24" target="30">
                    <mxGeometry relative="1" as="geometry">
                        <Array as="points">
                            <mxPoint x="320" y="-640"/>
                        </Array>
                    </mxGeometry>
                </mxCell>
                <mxCell id="qgahOEUiVm1OIHHilqF--123" style="edgeStyle=none;html=1;exitX=1;exitY=0.5;exitDx=0;exitDy=0;entryX=0.5;entryY=0;entryDx=0;entryDy=0;" edge="1" parent="1" source="24" target="29">
                    <mxGeometry relative="1" as="geometry">
                        <Array as="points">
                            <mxPoint x="615" y="-640"/>
                        </Array>
                    </mxGeometry>
                </mxCell>
                <mxCell id="24" value="&lt;font style=&quot;font-size: 15px;&quot;&gt;โค้กกระป๋องละ10บาท&lt;/font&gt;" style="rhombus;whiteSpace=wrap;html=1;" vertex="1" parent="1">
                    <mxGeometry x="400" y="-680" width="160" height="80" as="geometry"/>
                </mxCell>
                <mxCell id="qgahOEUiVm1OIHHilqF--94" style="edgeStyle=none;html=1;exitX=0;exitY=0.5;exitDx=0;exitDy=0;entryX=0.5;entryY=0;entryDx=0;entryDy=0;" edge="1" parent="1" source="25" target="qgahOEUiVm1OIHHilqF--90">
                    <mxGeometry relative="1" as="geometry">
                        <Array as="points">
                            <mxPoint x="1020" y="-640"/>
                        </Array>
                    </mxGeometry>
                </mxCell>
                <mxCell id="qgahOEUiVm1OIHHilqF--98" style="edgeStyle=none;html=1;exitX=1;exitY=0.5;exitDx=0;exitDy=0;entryX=0.5;entryY=0;entryDx=0;entryDy=0;" edge="1" parent="1" source="25" target="qgahOEUiVm1OIHHilqF--85">
                    <mxGeometry relative="1" as="geometry">
                        <Array as="points">
                            <mxPoint x="1400" y="-640"/>
                        </Array>
                    </mxGeometry>
                </mxCell>
                <mxCell id="25" value="&lt;font style=&quot;font-size: 15px;&quot;&gt;เม็ดทานตะวัน&lt;/font&gt;&lt;div&gt;&lt;font style=&quot;font-size: 15px;&quot;&gt;13บาท&lt;/font&gt;&lt;/div&gt;" style="rhombus;whiteSpace=wrap;html=1;" vertex="1" parent="1">
                    <mxGeometry x="1165" y="-680" width="160" height="80" as="geometry"/>
                </mxCell>
                <mxCell id="qgahOEUiVm1OIHHilqF--164" style="edgeStyle=none;html=1;exitX=1;exitY=0.5;exitDx=0;exitDy=0;entryX=0.5;entryY=0;entryDx=0;entryDy=0;" edge="1" parent="1" source="29" target="qgahOEUiVm1OIHHilqF--118">
                    <mxGeometry relative="1" as="geometry">
                        <Array as="points">
                            <mxPoint x="840" y="-580"/>
                        </Array>
                    </mxGeometry>
                </mxCell>
                <mxCell id="29" value="เอา" style="rounded=0;whiteSpace=wrap;html=1;" vertex="1" parent="1">
                    <mxGeometry x="560" y="-600" width="110" height="40" as="geometry"/>
                </mxCell>
                <mxCell id="qgahOEUiVm1OIHHilqF--126" style="edgeStyle=none;html=1;exitX=1;exitY=0.5;exitDx=0;exitDy=0;entryX=0.5;entryY=0;entryDx=0;entryDy=0;" edge="1" parent="1" source="30" target="36">
                    <mxGeometry relative="1" as="geometry">
                        <Array as="points">
                            <mxPoint x="455" y="-560"/>
                        </Array>
                    </mxGeometry>
                </mxCell>
                <mxCell id="qgahOEUiVm1OIHHilqF--127" style="edgeStyle=none;html=1;exitX=0;exitY=0.5;exitDx=0;exitDy=0;entryX=0.5;entryY=0;entryDx=0;entryDy=0;" edge="1" parent="1" source="30" target="qgahOEUiVm1OIHHilqF--40">
                    <mxGeometry relative="1" as="geometry">
                        <Array as="points">
                            <mxPoint x="157" y="-560"/>
                        </Array>
                    </mxGeometry>
                </mxCell>
                <mxCell id="30" value="&lt;font style=&quot;font-size: 15px;&quot;&gt;น้ำเขียวกระป๋อง&lt;/font&gt;&lt;div&gt;&lt;font style=&quot;font-size: 15px;&quot;&gt;12บาท&lt;/font&gt;&lt;/div&gt;" style="rhombus;whiteSpace=wrap;html=1;" vertex="1" parent="1">
                    <mxGeometry x="240" y="-600" width="160" height="80" as="geometry"/>
                </mxCell>
                <mxCell id="34" value="เท็จ" style="text;html=1;align=center;verticalAlign=middle;whiteSpace=wrap;rounded=0;" vertex="1" parent="1">
                    <mxGeometry x="330" y="-670" width="60" height="30" as="geometry"/>
                </mxCell>
                <mxCell id="qgahOEUiVm1OIHHilqF--166" style="edgeStyle=none;html=1;exitX=1;exitY=0.5;exitDx=0;exitDy=0;entryX=0.5;entryY=0;entryDx=0;entryDy=0;" edge="1" parent="1" source="36" target="qgahOEUiVm1OIHHilqF--118">
                    <mxGeometry relative="1" as="geometry">
                        <Array as="points">
                            <mxPoint x="840" y="-500"/>
                        </Array>
                    </mxGeometry>
                </mxCell>
                <mxCell id="36" value="เอา" style="rounded=0;whiteSpace=wrap;html=1;" vertex="1" parent="1">
                    <mxGeometry x="400" y="-522.5" width="110" height="40" as="geometry"/>
                </mxCell>
                <mxCell id="qgahOEUiVm1OIHHilqF--39" value="จริง" style="text;html=1;align=center;verticalAlign=middle;whiteSpace=wrap;rounded=0;" vertex="1" parent="1">
                    <mxGeometry x="400" y="-590" width="60" height="30" as="geometry"/>
                </mxCell>
                <mxCell id="qgahOEUiVm1OIHHilqF--129" style="edgeStyle=none;html=1;exitX=1;exitY=0.5;exitDx=0;exitDy=0;entryX=0.5;entryY=0;entryDx=0;entryDy=0;" edge="1" parent="1" source="qgahOEUiVm1OIHHilqF--40" target="qgahOEUiVm1OIHHilqF--49">
                    <mxGeometry relative="1" as="geometry">
                        <Array as="points">
                            <mxPoint x="297" y="-477"/>
                        </Array>
                    </mxGeometry>
                </mxCell>
                <mxCell id="qgahOEUiVm1OIHHilqF--132" style="edgeStyle=none;html=1;exitX=0;exitY=0.5;exitDx=0;exitDy=0;entryX=0.5;entryY=0;entryDx=0;entryDy=0;" edge="1" parent="1" source="qgahOEUiVm1OIHHilqF--40" target="qgahOEUiVm1OIHHilqF--55">
                    <mxGeometry relative="1" as="geometry">
                        <Array as="points">
                            <mxPoint x="3" y="-477"/>
                        </Array>
                    </mxGeometry>
                </mxCell>
                <mxCell id="qgahOEUiVm1OIHHilqF--40" value="&lt;font style=&quot;font-size: 15px;&quot;&gt;อเมริกันโน่&lt;/font&gt;&lt;div&gt;&lt;font style=&quot;font-size: 15px;&quot;&gt;30 บาท&lt;/font&gt;&lt;/div&gt;" style="rhombus;whiteSpace=wrap;html=1;" vertex="1" parent="1">
                    <mxGeometry x="75" y="-517.5" width="165" height="80" as="geometry"/>
                </mxCell>
                <mxCell id="qgahOEUiVm1OIHHilqF--48" value="เท็จ" style="text;html=1;align=center;verticalAlign=middle;whiteSpace=wrap;rounded=0;" vertex="1" parent="1">
                    <mxGeometry x="-140" y="-430" width="60" height="30" as="geometry"/>
                </mxCell>
                <mxCell id="qgahOEUiVm1OIHHilqF--176" style="edgeStyle=none;html=1;exitX=1;exitY=0.5;exitDx=0;exitDy=0;entryX=0.5;entryY=0;entryDx=0;entryDy=0;" edge="1" parent="1" source="qgahOEUiVm1OIHHilqF--49" target="qgahOEUiVm1OIHHilqF--118">
                    <mxGeometry relative="1" as="geometry">
                        <Array as="points">
                            <mxPoint x="840" y="-420"/>
                        </Array>
                    </mxGeometry>
                </mxCell>
                <mxCell id="qgahOEUiVm1OIHHilqF--49" value="เอา" style="rounded=0;whiteSpace=wrap;html=1;" vertex="1" parent="1">
                    <mxGeometry x="240" y="-440" width="115" height="40" as="geometry"/>
                </mxCell>
                <mxCell id="qgahOEUiVm1OIHHilqF--51" value="จริง" style="text;html=1;align=center;verticalAlign=middle;whiteSpace=wrap;rounded=0;" vertex="1" parent="1">
                    <mxGeometry x="550" y="-670" width="60" height="30" as="geometry"/>
                </mxCell>
                <mxCell id="qgahOEUiVm1OIHHilqF--133" style="edgeStyle=none;html=1;exitX=1;exitY=0.5;exitDx=0;exitDy=0;entryX=0.5;entryY=0;entryDx=0;entryDy=0;" edge="1" parent="1" source="qgahOEUiVm1OIHHilqF--55" target="qgahOEUiVm1OIHHilqF--61">
                    <mxGeometry relative="1" as="geometry">
                        <Array as="points">
                            <mxPoint x="135" y="-398"/>
                        </Array>
                    </mxGeometry>
                </mxCell>
                <mxCell id="qgahOEUiVm1OIHHilqF--134" style="edgeStyle=none;html=1;exitX=0;exitY=0.5;exitDx=0;exitDy=0;entryX=0.5;entryY=0;entryDx=0;entryDy=0;" edge="1" parent="1" source="qgahOEUiVm1OIHHilqF--55" target="qgahOEUiVm1OIHHilqF--57">
                    <mxGeometry relative="1" as="geometry">
                        <Array as="points">
                            <mxPoint x="-140" y="-400"/>
                        </Array>
                    </mxGeometry>
                </mxCell>
                <mxCell id="qgahOEUiVm1OIHHilqF--55" value="&lt;font style=&quot;font-size: 15px;&quot;&gt;ลาเต้หวานเจี๊ยบ&lt;/font&gt;&lt;div&gt;&lt;font style=&quot;font-size: 15px;&quot;&gt;35 บาท&lt;/font&gt;&lt;/div&gt;" style="rhombus;whiteSpace=wrap;html=1;" vertex="1" parent="1">
                    <mxGeometry x="-80" y="-437.5" width="165" height="80" as="geometry"/>
                </mxCell>
                <mxCell id="qgahOEUiVm1OIHHilqF--136" style="edgeStyle=none;html=1;exitX=0.5;exitY=1;exitDx=0;exitDy=0;entryX=0;entryY=0.5;entryDx=0;entryDy=0;" edge="1" parent="1" source="qgahOEUiVm1OIHHilqF--57" target="qgahOEUiVm1OIHHilqF--63">
                    <mxGeometry relative="1" as="geometry">
                        <Array as="points">
                            <mxPoint x="-140" y="-280"/>
                            <mxPoint x="-240" y="-280"/>
                            <mxPoint x="-240" y="-827"/>
                        </Array>
                    </mxGeometry>
                </mxCell>
                <mxCell id="qgahOEUiVm1OIHHilqF--57" value="ไม่เอา" style="rounded=0;whiteSpace=wrap;html=1;" vertex="1" parent="1">
                    <mxGeometry x="-200" y="-360" width="120" height="40" as="geometry"/>
                </mxCell>
                <mxCell id="qgahOEUiVm1OIHHilqF--59" value="เท็จ" style="text;html=1;align=center;verticalAlign=middle;whiteSpace=wrap;rounded=0;" vertex="1" parent="1">
                    <mxGeometry x="170" y="-590" width="60" height="30" as="geometry"/>
                </mxCell>
                <mxCell id="qgahOEUiVm1OIHHilqF--60" value="&lt;font style=&quot;font-size: 15px;&quot;&gt;จริง&lt;/font&gt;" style="text;html=1;align=center;verticalAlign=middle;whiteSpace=wrap;rounded=0;" vertex="1" parent="1">
                    <mxGeometry x="240" y="-500" width="60" height="30" as="geometry"/>
                </mxCell>
                <mxCell id="qgahOEUiVm1OIHHilqF--179" style="edgeStyle=none;html=1;exitX=1;exitY=0.5;exitDx=0;exitDy=0;entryX=0.5;entryY=0;entryDx=0;entryDy=0;" edge="1" parent="1" source="qgahOEUiVm1OIHHilqF--61" target="qgahOEUiVm1OIHHilqF--118">
                    <mxGeometry relative="1" as="geometry">
                        <Array as="points">
                            <mxPoint x="840" y="-330"/>
                        </Array>
                    </mxGeometry>
                </mxCell>
                <mxCell id="qgahOEUiVm1OIHHilqF--61" value="เอา" style="rounded=0;whiteSpace=wrap;html=1;" vertex="1" parent="1">
                    <mxGeometry x="75" y="-357.5" width="120" height="40" as="geometry"/>
                </mxCell>
                <mxCell id="qgahOEUiVm1OIHHilqF--65" style="edgeStyle=none;html=1;exitX=0.5;exitY=1;exitDx=0;exitDy=0;entryX=0.5;entryY=0;entryDx=0;entryDy=0;" edge="1" parent="1" source="qgahOEUiVm1OIHHilqF--63" target="11">
                    <mxGeometry relative="1" as="geometry"/>
                </mxCell>
                <mxCell id="qgahOEUiVm1OIHHilqF--63" value="" style="ellipse;whiteSpace=wrap;html=1;aspect=fixed;" vertex="1" parent="1">
                    <mxGeometry x="822.5" y="-840" width="25" height="25" as="geometry"/>
                </mxCell>
                <mxCell id="qgahOEUiVm1OIHHilqF--74" value="จริง" style="text;html=1;align=center;verticalAlign=middle;whiteSpace=wrap;rounded=0;" vertex="1" parent="1">
                    <mxGeometry x="75" y="-430" width="60" height="30" as="geometry"/>
                </mxCell>
                <mxCell id="qgahOEUiVm1OIHHilqF--76" value="เท็จ" style="text;html=1;align=center;verticalAlign=middle;whiteSpace=wrap;rounded=0;" vertex="1" parent="1">
                    <mxGeometry y="-510" width="60" height="30" as="geometry"/>
                </mxCell>
                <mxCell id="qgahOEUiVm1OIHHilqF--170" style="edgeStyle=none;html=1;exitX=0;exitY=0.5;exitDx=0;exitDy=0;entryX=0.5;entryY=0;entryDx=0;entryDy=0;" edge="1" parent="1" source="qgahOEUiVm1OIHHilqF--85" target="qgahOEUiVm1OIHHilqF--91">
                    <mxGeometry relative="1" as="geometry">
                        <Array as="points">
                            <mxPoint x="1190" y="-557"/>
                        </Array>
                    </mxGeometry>
                </mxCell>
                <mxCell id="qgahOEUiVm1OIHHilqF--171" style="edgeStyle=none;html=1;exitX=1;exitY=0.5;exitDx=0;exitDy=0;entryX=0.5;entryY=0;entryDx=0;entryDy=0;" edge="1" parent="1" source="qgahOEUiVm1OIHHilqF--85" target="qgahOEUiVm1OIHHilqF--88">
                    <mxGeometry relative="1" as="geometry">
                        <Array as="points">
                            <mxPoint x="1560" y="-557"/>
                        </Array>
                    </mxGeometry>
                </mxCell>
                <mxCell id="qgahOEUiVm1OIHHilqF--85" value="&lt;font style=&quot;font-size: 15px;&quot;&gt;ถั่วแปป&lt;/font&gt;&lt;div&gt;&lt;span style=&quot;font-size: 15px;&quot;&gt;20 บาท&lt;/span&gt;&lt;/div&gt;" style="rhombus;whiteSpace=wrap;html=1;" vertex="1" parent="1">
                    <mxGeometry x="1310" y="-597.5" width="180" height="80" as="geometry"/>
                </mxCell>
                <mxCell id="qgahOEUiVm1OIHHilqF--175" style="edgeStyle=none;html=1;exitX=1;exitY=0.5;exitDx=0;exitDy=0;entryX=0.5;entryY=0;entryDx=0;entryDy=0;" edge="1" parent="1" source="qgahOEUiVm1OIHHilqF--88" target="qgahOEUiVm1OIHHilqF--93">
                    <mxGeometry relative="1" as="geometry">
                        <Array as="points">
                            <mxPoint x="1700" y="-477"/>
                        </Array>
                    </mxGeometry>
                </mxCell>
                <mxCell id="qgahOEUiVm1OIHHilqF--88" value="&lt;font style=&quot;font-size: 15px;&quot;&gt;จิ้นส้มหมก&lt;/font&gt;&lt;div&gt;&lt;font style=&quot;font-size: 15px;&quot;&gt;15บาท&lt;/font&gt;&lt;/div&gt;" style="rhombus;whiteSpace=wrap;html=1;" vertex="1" parent="1">
                    <mxGeometry x="1470" y="-517.5" width="180" height="80" as="geometry"/>
                </mxCell>
                <mxCell id="qgahOEUiVm1OIHHilqF--165" style="edgeStyle=none;html=1;exitX=0;exitY=0.5;exitDx=0;exitDy=0;entryX=0.5;entryY=0;entryDx=0;entryDy=0;" edge="1" parent="1" source="qgahOEUiVm1OIHHilqF--90" target="qgahOEUiVm1OIHHilqF--118">
                    <mxGeometry relative="1" as="geometry">
                        <Array as="points">
                            <mxPoint x="840" y="-580"/>
                        </Array>
                    </mxGeometry>
                </mxCell>
                <mxCell id="qgahOEUiVm1OIHHilqF--90" value="&lt;font style=&quot;font-size: 15px;&quot;&gt;เอา&lt;/font&gt;" style="rounded=0;whiteSpace=wrap;html=1;" vertex="1" parent="1">
                    <mxGeometry x="960" y="-600" width="120" height="40" as="geometry"/>
                </mxCell>
                <mxCell id="qgahOEUiVm1OIHHilqF--169" style="edgeStyle=none;html=1;exitX=0;exitY=0.5;exitDx=0;exitDy=0;entryX=0.5;entryY=0;entryDx=0;entryDy=0;" edge="1" parent="1" source="qgahOEUiVm1OIHHilqF--91" target="qgahOEUiVm1OIHHilqF--118">
                    <mxGeometry relative="1" as="geometry">
                        <Array as="points">
                            <mxPoint x="840" y="-500"/>
                        </Array>
                    </mxGeometry>
                </mxCell>
                <mxCell id="qgahOEUiVm1OIHHilqF--91" value="&lt;font style=&quot;font-size: 15px;&quot;&gt;เอา&lt;/font&gt;" style="rounded=0;whiteSpace=wrap;html=1;" vertex="1" parent="1">
                    <mxGeometry x="1130" y="-522.5" width="120" height="45" as="geometry"/>
                </mxCell>
                <mxCell id="qgahOEUiVm1OIHHilqF--177" style="edgeStyle=none;html=1;exitX=0;exitY=0.5;exitDx=0;exitDy=0;entryX=0.5;entryY=0;entryDx=0;entryDy=0;" edge="1" parent="1" source="qgahOEUiVm1OIHHilqF--92" target="qgahOEUiVm1OIHHilqF--118">
                    <mxGeometry relative="1" as="geometry">
                        <Array as="points">
                            <mxPoint x="840" y="-420"/>
                        </Array>
                    </mxGeometry>
                </mxCell>
                <mxCell id="qgahOEUiVm1OIHHilqF--92" value="&lt;font style=&quot;font-size: 15px;&quot;&gt;เอา&lt;/font&gt;" style="rounded=0;whiteSpace=wrap;html=1;" vertex="1" parent="1">
                    <mxGeometry x="1325" y="-440" width="120" height="40" as="geometry"/>
                </mxCell>
                <mxCell id="qgahOEUiVm1OIHHilqF--115" style="edgeStyle=none;html=1;exitX=0.5;exitY=1;exitDx=0;exitDy=0;entryX=1;entryY=0.5;entryDx=0;entryDy=0;" edge="1" parent="1" source="qgahOEUiVm1OIHHilqF--93" target="qgahOEUiVm1OIHHilqF--63">
                    <mxGeometry relative="1" as="geometry">
                        <Array as="points">
                            <mxPoint x="1700" y="-360"/>
                            <mxPoint x="1840" y="-360"/>
                            <mxPoint x="1840" y="-820"/>
                        </Array>
                    </mxGeometry>
                </mxCell>
                <mxCell id="qgahOEUiVm1OIHHilqF--93" value="&lt;font style=&quot;font-size: 15px;&quot;&gt;ไม่เอา&lt;/font&gt;" style="rounded=0;whiteSpace=wrap;html=1;" vertex="1" parent="1">
                    <mxGeometry x="1640" y="-440" width="120" height="40" as="geometry"/>
                </mxCell>
                <mxCell id="qgahOEUiVm1OIHHilqF--104" value="&lt;font style=&quot;font-size: 15px;&quot;&gt;จริง&lt;/font&gt;" style="text;html=1;align=center;verticalAlign=middle;whiteSpace=wrap;rounded=0;" vertex="1" parent="1">
                    <mxGeometry x="1060" y="-670" width="60" height="30" as="geometry"/>
                </mxCell>
                <mxCell id="qgahOEUiVm1OIHHilqF--105" value="&lt;font style=&quot;font-size: 15px;&quot;&gt;จริง&lt;/font&gt;" style="text;html=1;align=center;verticalAlign=middle;whiteSpace=wrap;rounded=0;" vertex="1" parent="1">
                    <mxGeometry x="1240" y="-590" width="60" height="30" as="geometry"/>
                </mxCell>
                <mxCell id="qgahOEUiVm1OIHHilqF--107" value="&lt;font style=&quot;font-size: 15px;&quot;&gt;จริง&lt;/font&gt;" style="text;html=1;align=center;verticalAlign=middle;whiteSpace=wrap;rounded=0;" vertex="1" parent="1">
                    <mxGeometry x="1410" y="-500" width="60" height="30" as="geometry"/>
                </mxCell>
                <mxCell id="qgahOEUiVm1OIHHilqF--110" value="&lt;font style=&quot;font-size: 15px;&quot;&gt;เท็จ&lt;/font&gt;" style="text;html=1;align=center;verticalAlign=middle;whiteSpace=wrap;rounded=0;" vertex="1" parent="1">
                    <mxGeometry x="1330" y="-670" width="60" height="30" as="geometry"/>
                </mxCell>
                <mxCell id="qgahOEUiVm1OIHHilqF--111" value="&lt;font style=&quot;font-size: 15px;&quot;&gt;เท็จ&lt;/font&gt;" style="text;html=1;align=center;verticalAlign=middle;whiteSpace=wrap;rounded=0;" vertex="1" parent="1">
                    <mxGeometry x="1490" y="-590" width="60" height="30" as="geometry"/>
                </mxCell>
                <mxCell id="qgahOEUiVm1OIHHilqF--112" value="&lt;font style=&quot;font-size: 15px;&quot;&gt;เท็จ&lt;/font&gt;" style="text;html=1;align=center;verticalAlign=middle;whiteSpace=wrap;rounded=0;" vertex="1" parent="1">
                    <mxGeometry x="1640" y="-500" width="60" height="30" as="geometry"/>
                </mxCell>
                <mxCell id="qgahOEUiVm1OIHHilqF--141" style="edgeStyle=none;html=1;exitX=0.5;exitY=1;exitDx=0;exitDy=0;" edge="1" parent="1">
                    <mxGeometry relative="1" as="geometry">
                        <mxPoint x="840.0105263157895" y="-160" as="targetPoint"/>
                        <mxPoint x="839.8000000000002" y="-190" as="sourcePoint"/>
                        <Array as="points"/>
                    </mxGeometry>
                </mxCell>
                <mxCell id="qgahOEUiVm1OIHHilqF--118" value="" style="ellipse;whiteSpace=wrap;html=1;aspect=fixed;" vertex="1" parent="1">
                    <mxGeometry x="815" y="-240" width="50" height="50" as="geometry"/>
                </mxCell>
                <mxCell id="qgahOEUiVm1OIHHilqF--142" style="edgeStyle=none;html=1;exitX=0.5;exitY=1;exitDx=0;exitDy=0;" edge="1" parent="1">
                    <mxGeometry relative="1" as="geometry">
                        <mxPoint x="839.9205263157896" y="-60" as="targetPoint"/>
                        <mxPoint x="839.71" y="-100" as="sourcePoint"/>
                        <Array as="points">
                            <mxPoint x="839.71" y="-70"/>
                        </Array>
                    </mxGeometry>
                </mxCell>
                <mxCell id="qgahOEUiVm1OIHHilqF--139" value="&lt;font style=&quot;font-size: 15px;&quot;&gt;รวมราคาสินค้าทั้งหมด&lt;/font&gt;" style="rounded=0;whiteSpace=wrap;html=1;" vertex="1" parent="1">
                    <mxGeometry x="750" y="-160" width="170" height="60" as="geometry"/>
                </mxCell>
                <mxCell id="qgahOEUiVm1OIHHilqF--140" value="&lt;font style=&quot;font-size: 15px;&quot;&gt;ลูกค้าหยอดตู้ชำระเงิน&lt;/font&gt;" style="rounded=0;whiteSpace=wrap;html=1;" vertex="1" parent="1">
                    <mxGeometry x="750" y="-60" width="170" height="60" as="geometry"/>
                </mxCell>
                <mxCell id="qgahOEUiVm1OIHHilqF--154" style="edgeStyle=none;html=1;exitX=1;exitY=0.5;exitDx=0;exitDy=0;entryX=0.5;entryY=0;entryDx=0;entryDy=0;" edge="1" parent="1" source="qgahOEUiVm1OIHHilqF--143" target="qgahOEUiVm1OIHHilqF--148">
                    <mxGeometry relative="1" as="geometry">
                        <Array as="points">
                            <mxPoint x="1080" y="85"/>
                        </Array>
                    </mxGeometry>
                </mxCell>
                <mxCell id="qgahOEUiVm1OIHHilqF--159" style="edgeStyle=none;html=1;exitX=0.5;exitY=1;exitDx=0;exitDy=0;entryX=0.473;entryY=-0.008;entryDx=0;entryDy=0;entryPerimeter=0;" edge="1" parent="1" source="qgahOEUiVm1OIHHilqF--143" target="qgahOEUiVm1OIHHilqF--147">
                    <mxGeometry relative="1" as="geometry">
                        <mxPoint x="840" y="190" as="targetPoint"/>
                    </mxGeometry>
                </mxCell>
                <mxCell id="qgahOEUiVm1OIHHilqF--143" value="&lt;font style=&quot;font-size: 15px;&quot;&gt;&lt;font style=&quot;&quot;&gt;ยอดเงินที่หยอดใส่ตู้&lt;/font&gt;&lt;/font&gt;&lt;div&gt;&lt;font style=&quot;font-size: 15px;&quot;&gt;&lt;span style=&quot;color: rgb(0, 29, 53); font-family: Arial, sans-serif; text-align: left; background-color: rgb(255, 255, 255);&quot;&gt;≥ราคาสินค้าทั้งหมด&lt;/span&gt;&lt;/font&gt;&lt;/div&gt;" style="rhombus;whiteSpace=wrap;html=1;" vertex="1" parent="1">
                    <mxGeometry x="740" y="40" width="200" height="90" as="geometry"/>
                </mxCell>
                <mxCell id="qgahOEUiVm1OIHHilqF--144" style="edgeStyle=none;html=1;exitX=0.5;exitY=1;exitDx=0;exitDy=0;" edge="1" parent="1">
                    <mxGeometry relative="1" as="geometry">
                        <mxPoint x="839.71" as="sourcePoint"/>
                        <mxPoint x="839.71" y="40" as="targetPoint"/>
                    </mxGeometry>
                </mxCell>
                <mxCell id="qgahOEUiVm1OIHHilqF--160" style="edgeStyle=none;html=1;exitX=0.5;exitY=1;exitDx=0;exitDy=0;entryX=0.5;entryY=0;entryDx=0;entryDy=0;" edge="1" parent="1" source="qgahOEUiVm1OIHHilqF--147" target="qgahOEUiVm1OIHHilqF--157">
                    <mxGeometry relative="1" as="geometry"/>
                </mxCell>
                <mxCell id="qgahOEUiVm1OIHHilqF--147" value="&lt;font style=&quot;font-size: 15px;&quot;&gt;คิดเงินทอนลูกค้า&lt;/font&gt;&lt;div&gt;&lt;div&gt;&lt;font style=&quot;font-size: 15px;&quot;&gt;เงินที่หยอด-ราคาสินค้าทั้งหมด&lt;/font&gt;&lt;/div&gt;&lt;/div&gt;" style="rounded=0;whiteSpace=wrap;html=1;" vertex="1" parent="1">
                    <mxGeometry x="760" y="200" width="170" height="60" as="geometry"/>
                </mxCell>
                <mxCell id="qgahOEUiVm1OIHHilqF--156" style="edgeStyle=none;html=1;exitX=1;exitY=0.5;exitDx=0;exitDy=0;entryX=1;entryY=0.5;entryDx=0;entryDy=0;" edge="1" parent="1" source="qgahOEUiVm1OIHHilqF--148" target="qgahOEUiVm1OIHHilqF--118">
                    <mxGeometry relative="1" as="geometry">
                        <Array as="points">
                            <mxPoint x="1280" y="150"/>
                            <mxPoint x="1280" y="-210"/>
                        </Array>
                    </mxGeometry>
                </mxCell>
                <mxCell id="qgahOEUiVm1OIHHilqF--148" value="&lt;font style=&quot;font-size: 15px;&quot;&gt;ยอดเงินไม่เพียงพอ&lt;/font&gt;" style="rounded=0;whiteSpace=wrap;html=1;" vertex="1" parent="1">
                    <mxGeometry x="995" y="120" width="170" height="60" as="geometry"/>
                </mxCell>
                <mxCell id="qgahOEUiVm1OIHHilqF--151" value="&lt;font style=&quot;font-size: 15px;&quot;&gt;จริง&lt;/font&gt;" style="text;html=1;align=center;verticalAlign=middle;whiteSpace=wrap;rounded=0;" vertex="1" parent="1">
                    <mxGeometry x="775" y="150" width="60" height="30" as="geometry"/>
                </mxCell>
                <mxCell id="qgahOEUiVm1OIHHilqF--152" value="&lt;font style=&quot;font-size: 15px;&quot;&gt;เท็จ&lt;/font&gt;" style="text;html=1;align=center;verticalAlign=middle;whiteSpace=wrap;rounded=0;" vertex="1" parent="1">
                    <mxGeometry x="980" y="60" width="60" height="30" as="geometry"/>
                </mxCell>
                <mxCell id="qgahOEUiVm1OIHHilqF--161" style="edgeStyle=none;html=1;exitX=0.5;exitY=1;exitDx=0;exitDy=0;entryX=0.5;entryY=0;entryDx=0;entryDy=0;" edge="1" parent="1" source="qgahOEUiVm1OIHHilqF--157" target="qgahOEUiVm1OIHHilqF--158">
                    <mxGeometry relative="1" as="geometry"/>
                </mxCell>
                <mxCell id="qgahOEUiVm1OIHHilqF--157" value="&lt;font style=&quot;font-size: 15px;&quot;&gt;ทอนเงิน&lt;/font&gt;" style="rounded=0;whiteSpace=wrap;html=1;" vertex="1" parent="1">
                    <mxGeometry x="760" y="300" width="170" height="60" as="geometry"/>
                </mxCell>
                <mxCell id="qgahOEUiVm1OIHHilqF--158" value="&lt;font style=&quot;font-size: 15px;&quot;&gt;สิ้นสุด&lt;/font&gt;" style="ellipse;whiteSpace=wrap;html=1;" vertex="1" parent="1">
                    <mxGeometry x="785" y="400" width="120" height="80" as="geometry"/>
                </mxCell>
                <mxCell id="qgahOEUiVm1OIHHilqF--174" style="edgeStyle=none;html=1;exitX=0;exitY=0.5;exitDx=0;exitDy=0;entryX=0.625;entryY=0;entryDx=0;entryDy=0;entryPerimeter=0;" edge="1" parent="1" source="qgahOEUiVm1OIHHilqF--88" target="qgahOEUiVm1OIHHilqF--92">
                    <mxGeometry relative="1" as="geometry">
                        <Array as="points">
                            <mxPoint x="1400" y="-477"/>
                        </Array>
                    </mxGeometry>
                </mxCell>
            </root>
        </mxGraphModel>
    </diagram>
</mxfile>